HIERARCHY
ROOT Hips
{
	OFFSET 0.000000 93.385445 0.000000
	CHANNELS 6 Xposition Yposition Zposition Xrotation Yrotation Zrotation
	JOINT RightUpLeg
	{
		OFFSET -8.267204 -0.002556 0.000284
		CHANNELS 6 Xposition Yposition Zposition Xrotation Yrotation Zrotation
		JOINT RightLeg
		{
			OFFSET 0.000000 -42.978920 0.000356
			CHANNELS 6 Xposition Yposition Zposition Xrotation Yrotation Zrotation
			JOINT RightFoot
			{
				OFFSET 0.000000 -41.964985 0.000601
				CHANNELS 6 Xposition Yposition Zposition Xrotation Yrotation Zrotation
				JOINT RightToeBase
				{
					OFFSET 0.000000 -6.852513 15.501974
					CHANNELS 6 Xposition Yposition Zposition Xrotation Yrotation Zrotation
					End Site
					{
						OFFSET 0.000000 0.000000 16.948986
					}
				}
			}
		}
	}
	JOINT LeftUpLeg
	{
		OFFSET 8.267204 -0.004822 0.000536
		CHANNELS 6 Xposition Yposition Zposition Xrotation Yrotation Zrotation
		JOINT LeftLeg
		{
			OFFSET 0.000000 -42.978920 0.000356
			CHANNELS 6 Xposition Yposition Zposition Xrotation Yrotation Zrotation
			JOINT LeftFoot
			{
				OFFSET 0.000000 -41.964985 0.000601
				CHANNELS 6 Xposition Yposition Zposition Xrotation Yrotation Zrotation
				JOINT LeftToeBase
				{
					OFFSET 0.000000 -6.852513 15.501974
					CHANNELS 6 Xposition Yposition Zposition Xrotation Yrotation Zrotation
					End Site
					{
						OFFSET 0.000000 0.000000 16.948986
					}
				}
			}
		}
	}
	JOINT Spine
	{
		OFFSET 0.000000 10.062492 -1.118055
		CHANNELS 6 Xposition Yposition Zposition Xrotation Yrotation Zrotation
		JOINT Spine1
		{
			OFFSET 0.000000 11.181747 0.000000
			CHANNELS 3 Xrotation Yrotation Zrotation
			JOINT Spine2
			{
				OFFSET 0.000000 10.208565 0.001507
				CHANNELS 6 Xposition Yposition Zposition Xrotation Yrotation Zrotation
				JOINT Spine3
				{
					OFFSET 0.000000 10.197166 0.001508
					CHANNELS 6 Xposition Yposition Zposition Xrotation Yrotation Zrotation
					JOINT LeftShoulder
					{
						OFFSET 3.104119 8.005707 0.000000
						CHANNELS 6 Xposition Yposition Zposition Xrotation Yrotation Zrotation
						JOINT LeftArm
						{
							OFFSET 14.462845 0.000000 0.000000
							CHANNELS 3 Xrotation Yrotation Zrotation
							JOINT LeftForeArm
							{
								OFFSET 30.948917 0.000000 0.000000
								CHANNELS 3 Xrotation Yrotation Zrotation
								JOINT LeftHand
								{
									OFFSET 25.302570 0.000000 0.000000
									CHANNELS 3 Xrotation Yrotation Zrotation
									End Site
									{
										OFFSET 25.302567 0.000000 0.000000
									}
								}
							}
						}
					}
					JOINT RightShoulder
					{
						OFFSET -3.104119 8.005707 0.000000
						CHANNELS 6 Xposition Yposition Zposition Xrotation Yrotation Zrotation
						JOINT RightArm
						{
							OFFSET -14.462845 0.000000 0.000000
							CHANNELS 3 Xrotation Yrotation Zrotation
							JOINT RightForeArm
							{
								OFFSET -30.948917 0.000000 0.000000
								CHANNELS 3 Xrotation Yrotation Zrotation
								JOINT RightHand
								{
									OFFSET -25.302570 0.000000 0.000000
									CHANNELS 3 Xrotation Yrotation Zrotation
									End Site
									{
										OFFSET -25.302567 0.000000 0.000000
									}
								}
							}
						}
					}
					JOINT Neck
					{
						OFFSET 0.000000 14.283447 0.000000
						CHANNELS 6 Xposition Yposition Zposition Xrotation Yrotation Zrotation
						JOINT Head
						{
							OFFSET 0.000000 9.493164 -0.003241
							CHANNELS 6 Xposition Yposition Zposition Xrotation Yrotation Zrotation
							End Site
							{
								OFFSET 0.000000 9.493164 0.000000
							}
						}
					}
				}
			}
		}
	}
}
MOTION
Frames: 10
Frame Time: 0.016667
0.000000 93.385437 0.000000 -0.000000 0.000000 -0.000000 -8.267204 -0.002556 0.000284 -0.000000 0.000000 -0.000000 0.000000 -42.978920 0.000356 -0.000000 0.000000 -0.000000 -0.000001 -41.964985 0.000601 0.000000 0.000000 0.000000 -0.000001 -6.852512 15.501974 0.000000 0.000000 0.000000 8.267204 -0.004822 0.000536 -0.000000 0.000000 -0.000000 0.000000 -42.978920 0.000356 -0.000000 0.000000 -0.000000 0.000001 -41.964985 0.000601 0.000000 0.000000 0.000000 0.000001 -6.852512 15.501974 0.000000 0.000000 0.000000 0.000000 10.062492 -1.118055 -0.000000 0.000000 -0.000000 -0.000000 0.000000 -0.000000 0.000000 10.208565 0.001507 -0.000000 0.000000 -0.000000 0.000000 10.197151 0.001508 -0.000000 0.000000 -0.000000 3.104119 8.005707 0.000000 -0.000000 0.000000 -0.000000 -0.000000 0.000000 -0.000000 -0.000000 0.000000 -0.000000 -0.000000 0.000000 -0.000000 -3.104119 8.005707 0.000000 -0.000000 0.000000 -0.000000 -0.000000 0.000000 -0.000000 -0.000000 0.000000 -0.000000 -0.000000 0.000000 -0.000000 0.000000 14.283447 0.000000 -0.000000 0.000000 -0.000000 0.000000 9.493164 -0.003241 -0.000000 0.000000 -0.000000 
17.523924 7.587021 -53.582024 4.512023 61.933983 -10.959501 -8.267205 -0.002548 0.000282 -107.096581 21.766727 -46.298615 0.000001 -42.978916 0.000359 63.166675 1.385924 -0.299077 -0.000000 -41.964993 0.000602 11.099444 5.682680 22.588308 -0.000004 -6.852513 15.501976 -0.000000 -0.000001 -0.000002 8.267205 -0.004825 0.000537 -117.143331 9.425099 -34.059510 0.000002 -42.978920 0.000354 65.638637 0.703883 -0.193435 -0.000002 -41.964985 0.000603 14.802794 22.465081 3.612825 0.000001 -6.852517 15.501971 0.000003 -0.000002 -0.000001 0.000001 10.062500 -1.118057 8.712722 -4.204041 1.256861 -1.971268 -1.930595 0.284541 0.000007 10.208570 0.001504 3.849154 -1.930597 0.284333 0.000001 10.197173 0.001508 8.724142 -1.421860 0.347359 3.104120 8.005712 0.000001 -2.224935 -4.488353 -10.608208 -51.651854 -39.836095 -74.649371 -38.760934 -72.700554 -52.283954 9.861320 -10.898644 46.285535 -3.104115 8.005714 -0.000000 0.847072 1.337903 6.365125 -63.792239 10.789478 78.299028 -26.591943 77.035627 56.061725 7.958061 10.265916 -46.879338 0.000003 14.283448 0.000004 2.137386 -8.119387 1.904627 0.000003 9.493200 -0.003239 -32.548461 -15.390788 -1.126532 
17.576269 7.601089 -53.266281 2.110757 61.757382 -8.890611 -8.267199 -0.002556 0.000282 -105.771504 21.258122 -45.885078 -0.000001 -42.978924 0.000358 62.491204 0.934525 -0.301091 -0.000001 -41.964981 0.000604 11.140080 5.691042 22.586508 0.000001 -6.852515 15.501971 -0.000002 0.000001 0.000001 8.267204 -0.004827 0.000536 -116.093449 9.081873 -33.765122 -0.000001 -42.978920 0.000359 65.533671 0.463062 -0.214537 0.000005 -41.964985 0.000604 14.839882 22.610762 3.634778 -0.000001 -6.852512 15.501962 0.000001 0.000000 0.000001 0.000003 10.062498 -1.118059 9.135730 -4.041001 1.373952 -1.783476 -1.867234 0.342696 0.000001 10.208575 0.001501 4.036952 -1.867263 0.342504 -0.000000 10.197164 0.001511 8.864704 -1.370677 0.385818 3.104117 8.005703 -0.000004 -2.225550 -4.407702 -10.475755 -51.516784 -39.809737 -74.618430 -38.724622 -72.481640 -52.200353 9.789917 -11.025827 46.206544 -3.104120 8.005713 -0.000000 0.891912 1.490204 6.347930 -63.870062 10.642402 78.410394 -25.908326 77.301561 55.446219 8.057012 10.291300 -46.882115 -0.000004 14.283460 -0.000002 2.095674 -8.065083 1.685845 0.000002 9.493160 -0.003241 -32.640098 -15.174196 -1.490997 
17.480480 7.668457 -53.234970 0.294229 61.490759 -7.149264 -8.267201 -0.002557 0.000285 -104.996086 21.098847 -45.385415 -0.000002 -42.978924 0.000359 62.176892 0.651068 -0.317457 0.000002 -41.964989 0.000603 11.316067 5.693754 22.641413 -0.000002 -6.852510 15.501972 -0.000004 -0.000000 0.000000 8.267203 -0.004825 0.000534 -115.207820 8.767160 -33.462797 0.000004 -42.978912 0.000357 65.163932 0.321242 -0.194700 0.000003 -41.964989 0.000602 15.032539 22.746309 3.549369 -0.000005 -6.852513 15.501971 -0.000000 -0.000003 -0.000000 0.000003 10.062500 -1.118057 9.525255 -3.882919 1.475152 -1.610389 -1.805096 0.394087 0.000005 10.208561 0.001505 4.210045 -1.805148 0.393895 -0.000001 10.197170 0.001510 8.994283 -1.320882 0.419371 3.104115 8.005713 -0.000000 -2.415202 -4.369337 -10.454658 -51.513707 -39.752975 -74.586642 -38.260141 -72.373682 -51.735083 9.728147 -11.174655 46.188130 -3.104121 8.005705 -0.000000 0.791045 1.671200 6.253769 -64.010368 10.642598 78.429457 -25.882647 77.298077 55.366695 8.104416 10.389910 -46.897131 -0.000002 14.283459 0.000000 1.981212 -7.999657 1.418850 -0.000003 9.493167 -0.003235 -32.870166 -14.909403 -1.942866 
17.338490 7.753090 -53.299160 -1.183569 61.195531 -5.627552 -8.267197 -0.002557 0.000288 -104.479607 21.082036 -44.881747 0.000000 -42.978924 0.000357 62.004232 0.467016 -0.337313 -0.000002 -41.964985 0.000602 11.541381 5.672452 22.716255 -0.000001 -6.852515 15.501969 0.000002 -0.000001 0.000000 8.267202 -0.004827 0.000541 -114.447626 8.483413 -33.178300 -0.000002 -42.978916 0.000353 64.723036 0.221389 -0.153908 0.000003 -41.964977 0.000599 15.270408 22.883808 3.418695 0.000001 -6.852509 15.501972 -0.000001 -0.000000 0.000001 0.000003 10.062491 -1.118051 9.878145 -3.737661 1.560902 -1.453465 -1.747671 0.438406 -0.000009 10.208568 0.001506 4.366964 -1.747714 0.438226 0.000003 10.197172 0.001508 9.111760 -1.275075 0.448061 3.104115 8.005721 -0.000001 -2.661466 -4.340998 -10.479704 -51.581831 -39.655931 -74.580529 -37.687819 -72.336901 -51.191028 9.689189 -11.314854 46.216386 -3.104120 8.005707 -0.000002 0.640376 1.848932 6.132940 -64.158897 10.722220 78.410367 -26.102232 77.199852 55.471002 8.166685 10.508722 -46.929960 -0.000001 14.283442 0.000000 1.846130 -7.923928 1.141766 0.000007 9.493166 -0.003237 -33.136837 -14.619552 -2.408015 
17.229300 7.828499 -53.305519 -2.546293 60.905330 -4.196684 -8.267206 -0.002552 0.000288 -103.994384 21.051078 -44.426720 -0.000002 -42.978916 0.000352 61.794504 0.327582 -0.352871 -0.000003 -41.964985 0.000602 11.756041 5.606818 22.786857 0.000003 -6.852512 15.501972 -0.000001 0.000000 -0.000003 8.267199 -0.004820 0.000534 -113.779566 8.223900 -32.929906 0.000003 -42.978920 0.000355 64.354698 0.096952 -0.095324 0.000011 -41.964981 0.000604 15.471131 23.063717 3.269084 -0.000001 -6.852513 15.501969 0.000002 0.000002 0.000001 -0.000001 10.062497 -1.118055 10.195654 -3.608108 1.629872 -1.312169 -1.696096 0.474773 -0.000007 10.208575 0.001505 4.508260 -1.696143 0.474599 0.000001 10.197163 0.001508 9.217567 -1.234195 0.471284 3.104118 8.005720 0.000004 -2.863675 -4.299519 -10.503322 -51.688566 -39.477708 -74.623642 -37.220535 -72.358560 -50.795881 9.692547 -11.431258 46.291436 -3.104123 8.005704 0.000006 0.511129 1.993936 6.020781 -64.271418 10.849340 78.403830 -26.350928 77.106094 55.585780 8.324959 10.617029 -46.999122 -0.000001 14.283467 0.000007 1.728274 -7.837204 0.874054 -0.000005 9.493170 -0.003245 -33.367004 -14.315167 -2.847083 
17.127350 7.903008 -53.307819 -3.745663 60.618025 -2.898686 -8.267207 -0.002564 0.000288 -103.583391 21.043591 -43.999874 -0.000004 -42.978920 0.000354 61.601845 0.257244 -0.368647 0.000000 -41.964985 0.000603 11.974221 5.503051 22.855042 -0.000003 -6.852511 15.501972 0.000003 -0.000000 -0.000001 8.267201 -0.004821 0.000534 -113.197531 7.989942 -32.701245 0.000003 -42.978920 0.000352 64.019384 0.017714 -0.047470 -0.000000 -41.964977 0.000600 15.658601 23.208838 3.141985 0.000004 -6.852515 15.501972 0.000002 -0.000000 0.000001 -0.000004 10.062502 -1.118055 10.482860 -3.492798 1.691474 -1.184330 -1.650308 0.507344 -0.000002 10.208572 0.001501 4.636098 -1.650364 0.507174 -0.000002 10.197172 0.001511 9.313310 -1.197905 0.492130 3.104121 8.005711 0.000000 -3.053004 -4.245999 -10.532209 -51.821800 -39.294669 -74.719175 -36.869863 -72.416241 -50.487102 9.714768 -11.505127 46.398298 -3.104116 8.005703 0.000002 0.379633 2.129724 5.910902 -64.368092 10.992921 78.367535 -26.395891 77.086355 55.465234 8.507017 10.701230 -47.073138 0.000002 14.283441 0.000004 1.616433 -7.733203 0.619546 -0.000001 9.493176 -0.003258 -33.580687 -13.987135 -3.250896 
17.033319 7.977448 -53.308701 -4.804968 60.338670 -1.735087 -8.267205 -0.002552 0.000289 -103.213406 21.045080 -43.595127 -0.000001 -42.978920 0.000359 61.419609 0.282528 -0.388289 -0.000001 -41.964981 0.000603 12.192590 5.343324 22.916179 -0.000004 -6.852510 15.501974 -0.000000 -0.000001 -0.000002 8.267207 -0.004816 0.000538 -112.688197 7.777326 -32.478366 0.000002 -42.978924 0.000354 63.726273 0.054140 -0.052613 0.000001 -41.964981 0.000597 15.824778 23.237956 3.104201 -0.000002 -6.852515 15.501973 0.000002 0.000001 0.000000 -0.000000 10.062498 -1.118053 10.747737 -3.390080 1.756295 -1.066483 -1.610310 0.540769 0.000001 10.208573 0.001509 4.753945 -1.610369 0.540604 0.000000 10.197160 0.001507 9.401565 -1.165874 0.514053 3.104118 8.005712 -0.000004 -3.226249 -4.166106 -10.557653 -51.974195 -39.173973 -74.898871 -36.760997 -72.477890 -50.315975 9.742326 -11.504121 46.517823 -3.104123 8.005707 -0.000001 0.245887 2.275568 5.806515 -64.458169 11.120662 78.266359 -25.761040 77.301048 54.615074 8.654438 10.718750 -47.110393 -0.000001 14.283456 -0.000002 1.508316 -7.602784 0.384436 0.000002 9.493172 -0.003248 -33.780531 -13.622941 -3.603451 
16.947598 8.047852 -53.308300 -5.734548 60.074417 -0.697518 -8.267209 -0.002563 0.000285 -102.884888 21.058231 -43.220785 0.000002 -42.978924 0.000357 61.252030 0.342333 -0.407472 -0.000003 -41.964989 0.000605 12.403442 5.180007 22.966526 -0.000004 -6.852513 15.501973 -0.000000 -0.000001 -0.000000 8.267202 -0.004816 0.000537 -112.240943 7.596933 -32.269195 -0.000002 -42.978920 0.000351 63.472190 0.137276 -0.074127 -0.000002 -41.964985 0.000597 15.979352 23.204943 3.108700 -0.000005 -6.852511 15.501979 -0.000000 -0.000001 -0.000001 -0.000003 10.062493 -1.118051 10.982592 -3.302966 1.819090 -0.962028 -1.577022 0.572567 0.000002 10.208572 0.001503 4.858400 -1.577078 0.572405 0.000002 10.197167 0.001506 9.479782 -1.138958 0.535272 3.104122 8.005729 -0.000006 -3.385541 -4.083172 -10.578130 -52.106055 -39.103455 -75.105546 -36.780466 -72.556560 -50.184808 9.764812 -11.456376 46.659621 -3.104118 8.005707 -0.000005 0.111085 2.414639 5.714228 -64.532911 11.205789 78.129236 -24.906954 77.571715 53.560090 8.806162 10.724089 -47.161790 0.000002 14.283453 -0.000004 1.415090 -7.453800 0.181110 -0.000012 9.493185 -0.003241 -33.946395 -13.243911 -3.886321 
16.868914 8.112686 -53.307587 -6.577304 59.829985 0.251942 -8.267206 -0.002551 0.000286 -102.575433 21.086875 -42.873620 -0.000003 -42.978920 0.000360 61.098235 0.389240 -0.430596 -0.000003 -41.964989 0.000604 12.601793 5.051824 23.005908 -0.000003 -6.852513 15.501972 -0.000003 -0.000001 -0.000001 8.267202 -0.004823 0.000536 -111.827040 7.461936 -32.073814 0.000004 -42.978912 0.000352 63.253036 0.228143 -0.087656 0.000002 -41.964985 0.000598 16.135241 23.122364 3.133875 0.000000 -6.852510 15.501971 -0.000000 0.000000 0.000001 -0.000001 10.062504 -1.118055 11.186664 -3.233537 1.880303 -0.871329 -1.551371 0.602749 -0.000006 10.208571 0.001510 4.949100 -1.551431 0.602589 -0.000009 10.197160 0.001506 9.547699 -1.117854 0.555848 3.104115 8.005701 -0.000000 -3.539354 -4.017003 -10.586753 -52.168456 -39.114656 -75.302419 -36.841552 -72.674067 -49.956738 9.757643 -11.335240 46.851331 -3.104122 8.005711 0.000002 -0.032467 2.539123 5.643025 -64.584336 11.195362 77.959670 -24.148101 77.783629 52.679723 9.000349 10.766130 -47.283757 -0.000000 14.283468 -0.000000 1.348927 -7.282110 0.022272 -0.000004 9.493151 -0.003237 -34.054613 -12.850548 -4.073737 
